<svg width="41" height="41" viewBox="0 0 41 41" fill="none">
<path d="M7 20.25L10.055 17.1933C10.3588 16.8898 10.7706 16.7194 11.2 16.7194C11.6294 16.7194 12.0412 16.8898 12.345 17.1933L14.25 19.1033C14.5538 19.4068 14.9656 19.5773 15.395 19.5773C15.8244 19.5773 16.2362 19.4068 16.54 19.1033L21.0833 14.5683C21.3871 14.2648 21.7989 14.0944 22.2283 14.0944C22.6577 14.0944 23.0696 14.2648 23.3733 14.5683L26.8583 18.0533C27.1621 18.3568 27.5739 18.5273 28.0033 18.5273C28.4327 18.5273 28.8446 18.3568 29.1483 18.0533L34.5 12.75" stroke="white" stroke-width="2.5" stroke-linecap="round" stroke-linejoin="round"/>
<path d="M20.4297 2V4.39667" stroke="white" stroke-width="2.5" stroke-linecap="round" stroke-linejoin="round"/>
<path d="M37.8333 4.39844H3.66667C2.74619 4.39844 2 5.14463 2 6.0651V28.9818C2 29.9022 2.74619 30.6484 3.66667 30.6484H37.8333C38.7538 30.6484 39.5 29.9022 39.5 28.9818V6.0651C39.5 5.14463 38.7538 4.39844 37.8333 4.39844Z" stroke="white" stroke-width="2.5" stroke-linecap="round" stroke-linejoin="round"/>
<path d="M20.75 30.6484V35.6484" stroke="white" stroke-width="2.5" stroke-linecap="round" stroke-linejoin="round"/>
<path d="M15.6172 39.4968L20.7489 35.6484L25.8755 39.4934" stroke="white" stroke-width="2.5" stroke-linecap="round" stroke-linejoin="round"/>
</svg>
