<svg width="40" height="40" viewBox="0 0 40 40" fill="none">
<path d="M28.75 1.25H6.25C4.92392 1.25 3.65215 1.77678 2.71447 2.71447C1.77678 3.65215 1.25 4.92392 1.25 6.25V36.25C1.25 36.913 1.51339 37.5489 1.98223 38.0178C2.45107 38.4866 3.08696 38.75 3.75 38.75H6.13333" stroke="white" stroke-width="2.5" stroke-linecap="round" stroke-linejoin="round"/>
<path d="M6.25 9.16406H18.3333" stroke="white" stroke-width="2.5" stroke-linecap="round" stroke-linejoin="round"/>
<path d="M6.25 15.8359H14.35" stroke="white" stroke-width="2.5" stroke-linecap="round" stroke-linejoin="round"/>
<path d="M25 16.25V5C25 4.00544 25.3951 3.05161 26.0983 2.34835C26.8016 1.64509 27.7554 1.25 28.75 1.25C29.7446 1.25 30.6984 1.64509 31.4016 2.34835C32.1049 3.05161 32.5 4.00544 32.5 5V9.16667H25" stroke="white" stroke-width="2.5" stroke-linecap="round" stroke-linejoin="round"/>
<path d="M36.249 32.6797L28.2656 34.2797" stroke="white" stroke-width="2.5" stroke-linecap="round" stroke-linejoin="round"/>
<path d="M29.066 25.2335L25.2994 26.8168C25.0047 26.9443 24.6871 27.0101 24.366 27.0101C24.045 27.0101 23.7273 26.9443 23.4327 26.8168C22.9979 26.6197 22.6276 26.3037 22.3645 25.9053C22.1015 25.5069 21.9564 25.0423 21.9459 24.5649C21.9355 24.0876 22.0601 23.6171 22.3055 23.2075C22.5508 22.798 22.9069 22.4661 23.3327 22.2502L27.0994 20.3668C27.5638 20.1289 28.0776 20.0033 28.5994 20.0002C28.9932 19.9962 29.384 20.0698 29.7494 20.2168L37.4494 23.3335" stroke="white" stroke-width="2.5" stroke-linecap="round" stroke-linejoin="round"/>
<path d="M13.668 34.3521H16.318L21.4013 38.2188C21.5204 38.3537 21.6649 38.4638 21.8266 38.5427C21.9884 38.6216 22.1641 38.6679 22.3437 38.6787C22.5234 38.6895 22.7034 38.6648 22.8734 38.6059C23.0435 38.547 23.2002 38.4551 23.3346 38.3354L30.4346 32.4687C30.718 32.2399 30.8997 31.9086 30.9402 31.5466C30.9808 31.1846 30.877 30.8213 30.6513 30.5354L26.668 26.2188" stroke="white" stroke-width="2.5" stroke-linecap="round" stroke-linejoin="round"/>
<path d="M22.8984 22.5154L22.4818 22.1654C21.9582 21.8213 21.3414 21.6467 20.7151 21.6654C20.334 21.6654 19.9559 21.7331 19.5984 21.8654L13.6484 24.3321" stroke="white" stroke-width="2.5" stroke-linecap="round" stroke-linejoin="round"/>
<path d="M11.25 35.5966H11.75C11.9996 35.6101 12.2494 35.5742 12.4851 35.4909C12.7208 35.4077 12.9377 35.2788 13.1235 35.1116C13.3093 34.9444 13.4603 34.7422 13.5678 34.5165C13.6753 34.2908 13.7372 34.0462 13.75 33.7966V24.8799C13.7199 24.3787 13.4927 23.9098 13.1179 23.5756C12.7431 23.2415 12.2514 23.0692 11.75 23.0966H11.25" stroke="white" stroke-width="2.5" stroke-linecap="round" stroke-linejoin="round"/>
<path d="M38.7487 35.5966H38.332C38.0824 35.6101 37.8326 35.5742 37.5969 35.4909C37.3613 35.4077 37.1443 35.2788 36.9585 35.1116C36.7727 34.9444 36.6217 34.7422 36.5142 34.5165C36.4067 34.2908 36.3448 34.0462 36.332 33.7966V24.8799C36.3621 24.3787 36.5894 23.9098 36.9641 23.5756C37.3389 23.2415 37.8307 23.0692 38.332 23.0966H38.832" stroke="white" stroke-width="2.5" stroke-linecap="round" stroke-linejoin="round"/>
</svg>
