<svg width="16" height="14" viewBox="0 0 16 14" fill="none">
<path d="M16 8.39687V13.2969C16 13.6833 15.744 13.9969 15.4286 13.9969C15.1131 13.9969 14.8571 13.6833 14.8571 13.2969V12.5969H1.14286V13.2969C1.14286 13.6833 0.886857 13.9969 0.571429 13.9969C0.256 13.9969 0 13.6833 0 13.2969V8.39687C0 7.23907 0.769143 6.29688 1.71429 6.29688H14.2857C15.2309 6.29688 16 7.23907 16 8.39687Z" fill="#F8BB18"/>
<path d="M1.71484 4.9V0.7C1.71484 0.3136 1.97084 0 2.28627 0H13.7148C14.0303 0 14.2863 0.3136 14.2863 0.7V4.9H12.572V4.2C12.572 3.4279 12.0594 2.8 11.4291 2.8H9.71484C9.08456 2.8 8.57199 3.4279 8.57199 4.2V4.9H7.42913V4.2C7.42913 3.4279 6.91656 2.8 6.28627 2.8H4.57199C3.9417 2.8 3.42913 3.4279 3.42913 4.2V4.9H1.71484Z" fill="#F8BB18"/>
</svg>
