<svg width="45" height="27" viewBox="0 0 45 27" fill="none">
<g clip-path="url(#clip0_2314_4528)">
<path d="M22.0822 0.500057C22.6734 0.497083 23.2594 0.61069 23.8066 0.834378C24.3538 1.05807 24.8516 1.38744 25.2714 1.80367C25.6912 2.21989 26.0248 2.71479 26.2531 3.26004C26.4814 3.8053 26.5999 4.39021 26.6019 4.98131C26.6019 8.34038 22.0822 13.3037 22.0822 13.3037C22.0822 13.3037 17.5625 8.34038 17.5625 4.98131C17.5645 4.39021 17.683 3.8053 17.9113 3.26004C18.1396 2.71479 18.4732 2.21989 18.893 1.80367C19.3128 1.38744 19.8105 1.05807 20.3578 0.834378C20.905 0.61069 21.491 0.497083 22.0822 0.500057ZM22.0822 3.51267C21.7842 3.51267 21.4929 3.60101 21.2452 3.76653C20.9974 3.93204 20.8043 4.16729 20.6903 4.44253C20.5763 4.71778 20.5464 5.02064 20.6046 5.31284C20.6627 5.60503 20.8062 5.87343 21.0169 6.08409C21.2276 6.29475 21.496 6.43821 21.7883 6.49633C22.0805 6.55446 22.3834 6.52463 22.6587 6.41062C22.934 6.29661 23.1693 6.10354 23.3348 5.85583C23.5004 5.60812 23.5887 5.31689 23.5887 5.01897C23.5887 4.61948 23.43 4.23634 23.1475 3.95385C22.8649 3.67137 22.4817 3.51267 22.0822 3.51267Z" fill="#767676"/>
<path d="M28.1072 15.5637C28.1072 17.2284 25.4104 18.5768 22.0809 18.5768C18.7514 18.5768 16.0547 17.2284 16.0547 15.5637C16.0547 14.5919 16.9737 13.7257 18.3899 13.1758L18.8795 13.8613C18.0659 14.2002 17.5612 14.6673 17.5612 15.187C17.5612 16.2266 19.5876 17.0702 22.0809 17.0702C24.5743 17.0702 26.6006 16.2266 26.6006 15.187C26.6006 14.6673 26.0959 14.2002 25.2824 13.8613L25.7645 13.1758C27.1882 13.7257 28.0996 14.5919 28.0996 15.5637H28.1072Z" fill="#4081FF"/>
<path d="M28.1072 15.5637C28.1072 17.2284 25.4104 18.5768 22.0809 18.5768C18.7514 18.5768 16.0547 17.2284 16.0547 15.5637C16.0547 14.5919 16.9737 13.7257 18.3899 13.1758L18.8795 13.8613C18.0659 14.2002 17.5612 14.6673 17.5612 15.187C17.5612 16.2266 19.5876 17.0702 22.0809 17.0702C24.5743 17.0702 26.6006 16.2266 26.6006 15.187C26.6006 14.6673 26.0959 14.2002 25.2824 13.8613L25.7645 13.1758C27.1882 13.7257 28.0996 14.5919 28.0996 15.5637H28.1072Z" fill="#767676"/>
</g>
<defs>
<clipPath id="clip0_2314_4528">
<rect width="44" height="25.98" fill="white" transform="translate(0.078125 0.5)"/>
</clipPath>
</defs>
</svg>
